<?xml version="1.0" encoding="iso-8859-1"?>
<!-- Uploaded to: SVG Repo, www.svgrepo.com, Generator: SVG Repo Mixer Tools -->
<svg version="1.1" id="Layer_1" xmlns="http://www.w3.org/2000/svg" xmlns:xlink="http://www.w3.org/1999/xlink" 
	 viewBox="0 0 512 512" xml:space="preserve">
<circle cx="273.2" cy="125.336" r="125.336"/>
<path style="fill:#FFFFFF;" d="M64.8,508V376.256l-27.464,12l-15.2-42.816l41.248-21.224h27.28
	c1.352,15.112,13.648,26.912,28.8,27.648c15.336-0.536,27.88-12.376,29.32-27.648h27.28l41.248,21.128l-15.2,42.912l-27.464-12V508
	H64.8z"/>
<path style="fill:#E21B1B;" d="M175.112,328.192L212.4,347.28l-12.6,35.568l-17.928-7.816l-11.2-4.88V504H68.8V370.152l-11.2,4.88
	l-17.928,7.816L27.08,347.376l37.28-19.2h22.832c3.104,15.456,16.304,26.84,32.048,27.64h0.496h0.496
	c15.744-0.8,28.944-12.184,32.048-27.64h22.84 M177.048,320.176h-32.056c0.432,14.528-10.752,26.768-25.256,27.656
	c-14.496-0.888-25.68-13.12-25.256-27.64H62.424L17.2,343.464L35.008,393.6L60.8,382.4V512h117.864V382.4l25.792,11.2l17.808-50.256
	l-45.224-23.2L177.048,320.176z"/>
<path style="fill:#2D2D2D;" d="M444.92,377.2h-12v-26.968c-0.016-3.312-2.704-5.984-6.016-5.976H370.2
	c-3.312-0.008-6,2.664-6.016,5.976V377.2h-12v-26.968c0.048-9.928,8.128-17.944,18.056-17.92h56.664
	c9.928-0.024,18.008,7.992,18.056,17.92L444.92,377.2z"/>
<path style="fill:#999999;" d="M329.296,370.2l-27.048,129.68H494.8L467.776,370.2H329.296z"/>
<g>
	<path style="fill:#FFFFFF;" d="M369.448,416c-5.768-0.032-10.408-4.736-10.376-10.504s4.736-10.408,10.504-10.376
		c5.76,0.032,10.4,4.72,10.376,10.48C379.912,411.368,375.216,416.016,369.448,416z M427.6,416
		c-5.768-0.048-10.4-4.76-10.352-10.528s4.76-10.4,10.528-10.352c5.744,0.048,10.376,4.736,10.352,10.48
		C438.088,411.376,433.376,416.032,427.6,416z"/>
	<circle style="fill:#FFFFFF;" cx="312.88" cy="197.248" r="19.744"/>
</g>
<circle style="fill:#999999;" cx="312.88" cy="197.248" r="9.592"/>
<g>
	<polygon style="fill:#FFFFFF;" points="238.496,101.152 225.536,62.784 191.968,62.784 191.968,52.536 232.888,52.536 
		248.208,97.864 	"/>
	<circle style="fill:#FFFFFF;" cx="253.336" cy="197.248" r="19.744"/>
	<polygon style="fill:#FFFFFF;" points="240.28,164.672 219.072,96.544 350.32,96.544 326.032,164.672 	"/>
</g>
<g>
	<path style="fill:#E21B1B;" d="M344.648,100.544l-21.432,60.136h-80l-18.728-60.136L344.648,100.544 M355.992,92.544h-142.36
		l23.704,76.136h91.52L355.992,92.544z"/>
	<polygon style="fill:#E21B1B;" points="342.584,119.488 309.56,119.488 301.624,133.432 268.928,133.432 272.016,143.088 
		333.056,143.088 	"/>
</g>
<circle style="fill:#999999;" cx="253.336" cy="197.248" r="9.592"/>
<g>
	
		<rect x="80.1" y="260.341" transform="matrix(0.6344 -0.773 0.773 0.6344 -156.913 196.9129)" style="fill:#CCCCCC;" width="99.232" height="8"/>
	
		<rect x="369.845" y="251.097" transform="matrix(0.848 -0.53 0.53 0.848 -94.1783 241.4447)" style="fill:#CCCCCC;" width="8" height="67.632"/>
</g>
</svg>