<?xml version="1.0" encoding="utf-8"?>
<!-- Uploaded to: SVG Repo, www.svgrepo.com, Generator: SVG Repo Mixer Tools -->
<svg version="1.1" id="Uploaded to svgrepo.com" xmlns="http://www.w3.org/2000/svg" xmlns:xlink="http://www.w3.org/1999/xlink" 
	 width="800px" height="800px" viewBox="0 0 32 32" xml:space="preserve">
<style type="text/css">
	.pictogram_een{fill:#F4D6B0;}
	.pictogram_twee{fill:#F8AD89;}
	.pictogram_zes{fill:#0C6667;}
	.pictogram_vijf{fill:#01A59C;}
	.st0{fill:#E54D2E;}
	.st1{fill:#F8AD89;}
	.st2{fill:#F27261;}
	.st3{fill:none;}
	.st4{fill:#01A59C;}
	.st5{fill:#008A74;}
</style>
<g>
	<path class="pictogram_twee" d="M29,0H3C1.495,0,0.252,1.127,0.043,2.577v26.846C0.252,30.873,1.495,32,3,32h26
		c1.505,0,2.748-1.127,2.957-2.577V2.577C31.748,1.127,30.505,0,29,0z"/>
	<path class="pictogram_een" d="M18.25,22h-6.843c-4.16,0-7.532-3.358-7.532-7.5S7.247,7,11.407,7h6.843c-4.142,0-7.5,3.358-7.5,7.5
		S14.108,22,18.25,22z M20.343,7H18.25c4.142,0,7.5,3.358,7.5,7.5s-3.358,7.5-7.5,7.5h2.093c4.16,0,7.532-3.358,7.532-7.5
		S24.503,7,20.343,7z"/>
	<path class="pictogram_vijf" d="M25.75,14.5c0-4.142-3.358-7.5-7.5-7.5s-7.5,3.358-7.5,7.5s3.358,7.5,7.5,7.5
		S25.75,18.642,25.75,14.5z M18.25,19.203c-2.598,0-4.703-2.106-4.703-4.703c0-2.598,2.106-4.703,4.703-4.703
		s4.703,2.106,4.703,4.703C22.953,17.098,20.848,19.203,18.25,19.203z"/>
	<circle class="pictogram_zes" cx="18.25" cy="14.5" r="4.703"/>
</g>
</svg>