<?xml version="1.0" encoding="iso-8859-1"?>
<!-- Uploaded to: SVG Repo, www.svgrepo.com, Generator: SVG Repo Mixer Tools -->
<svg height="800px" width="800px" version="1.1" id="Layer_1" xmlns="http://www.w3.org/2000/svg" xmlns:xlink="http://www.w3.org/1999/xlink" 
	 viewBox="0 0 512 512" xml:space="preserve">
<g transform="translate(1 1)">
	<path style="fill:#FDCC00;" d="M370.55,502.467H148.026c-13.952,0-25.267-11.315-25.267-25.276V32.809
		c0-13.96,11.315-25.276,25.267-25.276H370.55c13.96,0,25.276,11.315,25.276,25.276v444.382
		C395.826,491.152,384.51,502.467,370.55,502.467"/>
	<g>
		<polygon style="fill:#FFE100;" points="122.733,434.132 395.8,434.132 395.8,58.665 122.733,58.665 		"/>
		<path style="fill:#FFE100;" d="M285.071,468.333c0,14.14-11.46,25.6-25.6,25.6c-14.14,0-25.6-11.46-25.6-25.6
			c0-14.14,11.46-25.6,25.6-25.6C273.611,442.733,285.071,454.194,285.071,468.333"/>
	</g>
	<path style="fill:#FFA800;" d="M370.601,7.533h-25.6c13.96,0,25.276,11.315,25.276,25.276v444.382
		c0,13.96-11.315,25.276-25.276,25.276h25.6c13.96,0,25.276-11.315,25.276-25.276V32.809
		C395.877,18.848,384.562,7.533,370.601,7.533"/>
	<path style="fill:#FFFFFF;" d="M148.052,7.533h25.6c-13.96,0-25.276,11.315-25.276,25.276v444.382
		c0,13.96,11.315,25.276,25.276,25.276h-25.6c-13.96,0-25.276-11.315-25.276-25.276V32.809
		C122.776,18.848,134.1,7.533,148.052,7.533"/>
	<g>
		<path style="fill:#63D3FD;" d="M250.733,297.667c26.436,26.436,59.076,46.097,85.512,19.652l8.337-8.337
			c4.011-4.011,4.941-10.163,2.287-15.181c-6.238-11.793-29.244-25.276-29.244-25.276c-5.205-2.961-11.486-3.294-14.455,1.997
			c0,0-7.475,8.96-9.378,10.248c-8.687,5.888-17.869,8.491-25.992,0.367L250.733,297.667z"/>
		<path style="fill:#63D3FD;" d="M225.133,237.933c-8.124-8.124-2.287-13.534,3.592-22.221c1.289-1.903,10.257-9.378,10.257-9.378
			c5.291-2.97,4.958-9.25,1.988-14.455c0,0-13.483-23.006-25.267-29.244c-5.018-2.654-11.179-1.724-15.189,2.287l-8.337,8.337
			c-26.436,26.436-10.812,55.304,15.624,81.741L225.133,237.933z"/>
	</g>
	<path d="M370.524,511H148.001c-18.637,0-33.801-15.164-33.801-33.809V32.809C114.2,14.164,129.364-1,148.001-1h222.524
		c18.645,0,33.809,15.164,33.809,33.809v444.382C404.333,495.836,389.17,511,370.524,511z M148.001,16.067
		c-9.224,0-16.734,7.509-16.734,16.742v444.382c0,9.233,7.509,16.742,16.734,16.742h222.524c9.233,0,16.742-7.509,16.742-16.742
		V32.809c0-9.233-7.509-16.742-16.742-16.742H148.001z"/>
	<path d="M404.333,442.733H114.2V50.2h290.133V442.733z M131.267,425.667h256v-358.4h-256V425.667z"/>
	<path d="M293.4,41.667h-42.667c-4.71,0-8.533-3.823-8.533-8.533s3.823-8.533,8.533-8.533H293.4c4.719,0,8.533,3.823,8.533,8.533
		S298.119,41.667,293.4,41.667z"/>
	<path d="M225.133,41.667H216.6c-4.71,0-8.533-3.823-8.533-8.533S211.89,24.6,216.6,24.6h8.533c4.71,0,8.533,3.823,8.533,8.533
		S229.844,41.667,225.133,41.667z"/>
	<path d="M114.2,101.4c-4.71,0-8.533-3.823-8.533-8.533v-8.533c0-4.71,3.823-8.533,8.533-8.533s8.533,3.823,8.533,8.533v8.533
		C122.733,97.577,118.91,101.4,114.2,101.4z"/>
	<path d="M114.2,135.533c-4.71,0-8.533-3.823-8.533-8.533v-8.533c0-4.71,3.823-8.533,8.533-8.533s8.533,3.823,8.533,8.533V127
		C122.733,131.71,118.91,135.533,114.2,135.533z"/>
	<path d="M114.2,169.667c-4.71,0-8.533-3.823-8.533-8.533V152.6c0-4.71,3.823-8.533,8.533-8.533s8.533,3.823,8.533,8.533v8.533
		C122.733,165.844,118.91,169.667,114.2,169.667z"/>
	<path d="M259.267,502.467c-18.824,0-34.133-15.309-34.133-34.133c0-18.824,15.309-34.133,34.133-34.133
		c18.824,0,34.133,15.309,34.133,34.133C293.4,487.158,278.091,502.467,259.267,502.467z M259.267,451.267
		c-9.412,0-17.067,7.654-17.067,17.067c0,9.412,7.654,17.067,17.067,17.067c9.412,0,17.067-7.654,17.067-17.067
		C276.333,458.921,268.679,451.267,259.267,451.267z"/>
	<path d="M308.035,338.371c-5.564,0-11.324-0.981-17.246-2.953c-14.293-4.753-29.798-15.428-46.089-31.719
		c-1.613-1.613-2.517-3.814-2.5-6.101c0.017-2.296,0.956-4.471,2.594-6.067l17.067-16.529c3.336-3.226,8.67-3.2,11.964,0.102
		c2.116,2.091,5.299,5.282,15.164-1.399c0.725-0.657,4.301-4.702,7.194-8.149c2.227-3.524,5.47-5.956,9.421-7.057
		c5.035-1.382,10.795-0.469,16.222,2.603c2.671,1.562,25.412,15.164,32.563,28.706c4.437,8.371,2.918,18.5-3.789,25.208
		l-8.337,8.337C332.329,333.31,320.698,338.371,308.035,338.371z M263.03,297.641c11.989,10.999,23.117,18.253,33.152,21.581
		c13.346,4.454,24.175,1.92,34.031-7.945l8.337-8.337c1.374-1.374,1.681-3.439,0.777-5.154
		c-3.703-6.997-17.929-17.152-26.018-21.905c-1.707-0.964-2.935-0.956-3.132-0.939c-0.256,0.461-0.128,0.648-0.461,1.049
		c-8.252,9.882-10.359,11.307-11.153,11.853c-12.945,8.781-22.861,8.115-29.978,4.42L263.03,297.641z"/>
	<path d="M207.802,263.533c-2.185,0-4.369-0.836-6.033-2.5c-36.309-36.309-41.566-67.874-15.624-93.807l8.337-8.337
		c6.69-6.699,16.819-8.235,25.208-3.797c13.542,7.177,27.136,29.909,28.638,32.478c3.14,5.513,4.079,11.273,2.671,16.324
		c-1.101,3.968-3.533,7.211-7.066,9.421c-3.447,2.893-7.518,6.494-8.405,7.535c-0.521,0.802-1.289,1.894-2.04,2.944
		c-1.468,2.065-3.686,5.188-3.823,6.298l0,0c0.034,0,0.316,0.64,1.493,1.818c1.604,1.604,2.509,3.789,2.5,6.067
		c-0.009,2.278-0.922,4.446-2.543,6.042l-17.331,17.067C212.129,262.714,209.97,263.533,207.802,263.533z M209.654,169.667
		c-1.135,0-2.253,0.444-3.106,1.289l-8.337,8.337c-11.887,11.887-21.103,29.756,9.771,63.556l6.059-5.973
		c-4.13-9.361,1.732-17.613,5.53-22.972l2.082-2.978c0.537-0.794,1.963-2.901,11.861-11.153c0.384-0.324,0.802-0.614,1.246-0.862
		c-0.171,0-0.265-1.16-1.212-2.808c-4.702-8.004-14.857-22.229-21.854-25.933C211.062,169.829,210.354,169.667,209.654,169.667z"/>
	<path d="M191,323.267c-2.185,0-4.369-0.836-6.033-2.5c-3.336-3.336-3.336-8.73,0-12.066l102.4-102.4
		c3.336-3.336,8.73-3.336,12.066,0c3.336,3.336,3.336,8.73,0,12.066l-102.4,102.4C195.369,322.43,193.185,323.267,191,323.267z"/>
</g>
</svg>