<?xml version="1.0" ?>
<!-- Uploaded to: SVG Repo, www.svgrepo.com, Generator: SVG Repo Mixer Tools -->
<svg width="800px" height="800px" viewBox="0 0 256 256" xmlns="http://www.w3.org/2000/svg">
<g>
<path d="m134.75 213.64c-1.92-21.77-18.18-22.57-20.67-25.84s1.76-144.31-1.24-145.58-23.77 5.68-24.62 33.44-2 72.78.72 80 4.93 20.34 3.39 31.34-5.54 18.74-6.11 29c-.53 9.75 6.18 21 21.68 22.84 13.68 1.56 28.1-11.5 26.85-25.2zm-12 0c-.21 5.75-7.06 12.52-13.35 12.22-8.72-.41-10.68-7.31-11.16-12.56s5.8-13.2 12.3-12.71c7 .48 12.46 5.5 12.21 13.01z" fill="#191919"/>
<path d="m110.15 246.94a27.55 27.55 0 0 1 -3.18-.18c-19.87-2.31-29.5-17.46-28.74-31.22.36-6.52 1.88-12 3.36-17.33a92.78 92.78 0 0 0 2.81-12.33c1.29-9.21-.56-21-3-27.36-2.09-5.57-3.1-21.83-1.22-83.1.67-22 12-32.49 18.77-36.81 2.4-1.54 10.73-6.37 17-3.75 5.24 2.21 5.46 7.44 5.73 14.07.17 4.16.26 10 .29 17.9 0 14.5-.16 33.69-.36 52.26-.26 24.4-.57 54.06-.09 63.84 6 2.76 19.37 9.2 21.21 30 .77 8.67-2.79 17.53-9.75 24.3a33.27 33.27 0 0 1 -22.83 9.71zm-3.94-34.26c.49 5 1.91 5.08 3.56 5.15s4.83-3 5-4.54c.14-4-3.32-4.66-4.81-4.77-1.16.08-3.52 2.71-3.74 4.16zm-.39-159.3a22 22 0 0 0 -2.17 2c-4.65 4.95-7.17 11.85-7.44 20.52-1.75 57.39-.84 73.59.24 77.07 3 8.1 5.55 22.6 3.8 35.12a84.76 84.76 0 0 1 -1.74 8.76 19.15 19.15 0 0 1  9.24-4.16c-2.53-3.32-2.86-3.75-2.12-73.74.21-22.37.52-51.04.19-65.57z" fill="#191919"/>
</g>
<g>
<path d="m134.75 213.64c-1.92-21.77-18.18-22.57-20.67-25.84s1.76-144.31-1.24-145.58-23.77 5.68-24.62 33.44-2 72.78.72 80 4.93 20.34 3.39 31.34-5.54 18.74-6.11 29c-.53 9.75 6.18 21 21.68 22.84 13.68 1.56 28.1-11.5 26.85-25.2zm-12 0c-.21 5.75-7.06 12.52-13.35 12.22-8.72-.41-10.68-7.31-11.16-12.56s5.8-13.2 12.3-12.71c7 .48 12.46 5.5 12.21 13.01z" fill="#ffffff"/>
</g>
<g>
<path d="m119.22 17.71c17 .89 116.76 79.73 116.06 95.17s-52.51 82.65-68.16 79-112.22-74.44-113.53-91.32 47.62-83.79 65.63-82.85z" fill="#191919"/>
<path d="m168.44 200.07a13.81 13.81 0 0 1 -3.12-.35c-12-2.76-47.91-28.79-65.24-42.17-53.29-41.15-54.18-52.6-54.47-56.37-.61-7.37 4.22-19.18 14.24-35.03a246.56 246.56 0 0 1 29.85-38.29c7.85-8.05 19.47-18.69 29.94-18.14 3.86.2 10.68 2 29.38 14.39 11.78 7.79 25.98 18.27 39.87 29.51 55.11 44.38 54.55 55.86 54.38 59.63-.74 16.2-36.46 63.12-57.78 79.31-6.67 5.07-12.18 7.51-17.05 7.51zm-106.88-100.33c1.48 4.43 15.85 20.25 50 46.45 29 22.24 51.69 36.23 57 37.85 3.29-.6 15.3-8.77 33.54-31.4 17.75-22 24.32-36 25.1-39.64-1.94-4.86-16.77-21.65-50.1-48.33-31.79-25.44-53.51-38.25-58.33-39-1.78.12-9 3.57-22.19 18.2a235.71 235.71 0 0 0 -25 33.64c-8.19 13.57-9.99 20.42-10.02 22.23z" fill="#191919"/>
</g>
<g>
<path d="m119.22 17.71c17 .89 116.76 79.73 116.06 95.17s-52.51 82.65-68.16 79-112.22-74.44-113.53-91.32 47.62-83.79 65.63-82.85z" fill="#e83a2a"/>
</g>
<path d="m136.65 75.26c-4.74 4.77-11.24 5.33-17.21 0-5-4.45-4.79-12.45 0-17.21s10.91-5.33 17.21 0c5.16 4.36 4.74 12.44 0 17.21z" fill="#ffffff"/>
<path d="m199.58 130.21c-5.67 3.61-12.13 2.74-16.81-3.72-3.94-5.45-1.95-13.19 3.72-16.81s11.81-2.81 16.81 3.72c4.12 5.4 1.94 13.2-3.72 16.81z" fill="#ffffff"/>
<path d="m103.67 104.5c-1.92.15-9.15 11.55-8.09 12.75s70.52 39.1 71.64 39.18 6.29-7.27 4.92-8.44-66.88-43.62-68.47-43.49z" fill="#ffffff"/>
<g>
<path d="m23.46 191.41c9.43 12.44 22.55 12.5 30.68 7.08 8.55-5.69 13.18-13.07 21.88-20s18.63-8.55 28.58-12.49c15.53-6.08 46.31-24.7 69.41-40.49 22.93-15.68 18.9-36.25 16.3-38.19s-122 73.33-126 72.84-13-14.08-32.75-4.69c-12.47 5.95-16.42 24.97-8.1 35.94zm31.62-21.69c3.72 5.36.06 14.8-4.71 17.05s-12 3.51-17-4c-3.47-5.26-.62-13.89 4.23-17 6.4-3.99 13.48-1.77 17.48 3.95z" fill="#191919"/>
<path d="m42.68 209.91c-8.86 0-18.29-4-25.59-13.67-5.51-7.27-7.38-17.45-5-27.23 2.3-9.44 8.13-17 16-20.74 18.87-9 31.19-.74 36.63 3 8.67-4.55 34.07-19.88 55-32.49 15.83-9.55 32.28-19.47 44.77-26.78 6.81-4 11.9-6.88 15.57-8.84 5.85-3.13 10.46-5.61 15-2.21 4.95 3.68 5.32 11.88 5.26 15.24-.13 6.42-2.51 22.77-21.82 36-22.31 15.25-54 34.7-71 41.34-3 1.18-6 2.15-8.81 3.08-6.69 2.18-12.57 4.1-17.69 8.17a92.88 92.88 0 0 0 -9.2 8.68c-3.83 4-7.79 8.08-13.23 11.69a28.78 28.78 0 0 1 -15.89 4.76zm1.78-38.16a4.62 4.62 0 0 0 -2.5.81 6.18 6.18 0 0 0 -1.94 3.5 3.72 3.72 0 0 0  .08 2.34c.87 1.31 2.18 3.29 6.74 1.19 1.13-.92 2.19-4.28 1.67-5.33-.64-.89-2.05-2.51-4.05-2.51zm18.81-3.62a19.14 19.14 0 0 1 1.11 10.07 84.71 84.71 0 0 1  6.62-5.94c7.36-5.85 15.14-8.41 22.67-10.88 2.76-.91 5.37-1.77 8-2.78 15.1-5.91 45.54-24.42 67.81-39.65 10.2-7 13.54-14.41 14.48-19.71-12.76 7.16-37.08 21.83-56.06 33.29-59.9 36.17-60.45 36.11-64.6 35.61z" fill="#191919"/>
</g>
<g>
<path d="m23.46 191.41c9.43 12.44 22.55 12.5 30.68 7.08 8.55-5.69 13.18-13.07 21.88-20s18.63-8.55 28.58-12.49c15.53-6.08 46.31-24.7 69.41-40.49 22.93-15.68 18.9-36.25 16.3-38.19s-122 73.33-126 72.84-13-14.08-32.75-4.69c-12.47 5.95-16.42 24.97-8.1 35.94zm31.62-21.69c3.72 5.36.06 14.8-4.71 17.05s-12 3.51-17-4c-3.47-5.26-.62-13.89 4.23-17 6.4-3.99 13.48-1.77 17.48 3.95z" fill="#ffffff"/>
</g>
</svg>