<?xml version="1.0" encoding="iso-8859-1"?>
<!-- Uploaded to: SVG Repo, www.svgrepo.com, Generator: SVG Repo Mixer Tools -->
<svg fill="#000000" height="800px" width="800px" version="1.1" id="Layer_1" xmlns="http://www.w3.org/2000/svg" xmlns:xlink="http://www.w3.org/1999/xlink" 
	 viewBox="0 0 512 512" xml:space="preserve">
<g>
	<g>
		<path d="M256,360.727c-38.4,0-69.818,31.418-69.818,69.818c0,38.4,31.418,69.818,69.818,69.818
			c38.4,0,69.818-31.418,69.818-69.818C325.818,392.145,294.4,360.727,256,360.727z M256,477.091
			c-25.6,0-46.545-20.945-46.545-46.545C209.455,404.945,230.4,384,256,384c25.6,0,46.545,20.945,46.545,46.545
			C302.545,456.145,281.6,477.091,256,477.091z"/>
	</g>
</g>
<g>
	<g>
		<path d="M442.182,360.727c-38.4,0-69.818,31.418-69.818,69.818c0,38.4,31.418,69.818,69.818,69.818
			c38.4,0,69.818-31.418,69.818-69.818C512,392.145,480.582,360.727,442.182,360.727z M442.182,477.091
			c-25.6,0-46.545-20.945-46.545-46.545c0-25.6,20.945-46.545,46.545-46.545c25.6,0,46.545,20.945,46.545,46.545
			C488.727,456.145,467.782,477.091,442.182,477.091z"/>
	</g>
</g>
<g>
	<g>
		<path d="M69.818,360.727C31.418,360.727,0,392.145,0,430.545c0,38.4,31.418,69.818,69.818,69.818
			c38.4,0,69.818-31.418,69.818-69.818C139.636,392.145,108.218,360.727,69.818,360.727z M69.818,477.091
			c-25.6,0-46.545-20.945-46.545-46.545c0-25.6,20.945-46.545,46.545-46.545c25.6,0,46.545,20.945,46.545,46.545
			C116.364,456.145,95.418,477.091,69.818,477.091z"/>
	</g>
</g>
<g>
	<g>
		<path d="M325.818,11.636H186.182c-19.782,0-34.909,15.127-34.909,34.909v46.545c0,19.782,15.127,34.909,34.909,34.909h139.636
			c19.782,0,34.909-15.127,34.909-34.909V46.545C360.727,26.764,345.6,11.636,325.818,11.636z M337.455,93.091
			c0,6.982-4.655,11.636-11.636,11.636H186.182c-6.982,0-11.636-4.655-11.636-11.636V46.545c0-6.982,4.655-11.636,11.636-11.636
			h139.636c6.982,0,11.636,4.655,11.636,11.636V93.091z"/>
	</g>
</g>
<g>
	<g>
		<path d="M430.545,232.727H267.636v-69.818c0-6.982-4.655-11.636-11.636-11.636s-11.636,4.655-11.636,11.636v69.818H81.455
			c-19.782,0-34.909,15.127-34.909,34.909v58.182c0,6.982,4.655,11.636,11.636,11.636s11.636-4.655,11.636-11.636v-58.182
			c0-6.982,4.655-11.636,11.636-11.636h162.909v69.818c0,6.982,4.655,11.636,11.636,11.636s11.636-4.655,11.636-11.636V256h162.909
			c6.982,0,11.636,4.655,11.636,11.636v58.182c0,6.982,4.655,11.636,11.636,11.636s11.636-4.655,11.636-11.636v-58.182
			C465.455,247.855,450.327,232.727,430.545,232.727z"/>
	</g>
</g>
</svg>