<?xml version="1.0" encoding="iso-8859-1"?>
<!-- Uploaded to: SVG Repo, www.svgrepo.com, Generator: SVG Repo Mixer Tools -->
<svg height="800px" width="800px" version="1.1" id="Layer_1" xmlns="http://www.w3.org/2000/svg" xmlns:xlink="http://www.w3.org/1999/xlink" 
	 viewBox="0 0 512 512" xml:space="preserve">
<path style="fill:#234848;" d="M76.243,52.875l11.898,69.681c0,0-0.001,0.001-0.001,0.002h-5.694
	c-6.461-5.466-10.64-9.001-17.101-14.467l-7.423-43.468c0,0-0.001,0-0.001-0.001h-47.59c-5.022,0-9.51-3.574-10.224-8.562
	c-0.889-6.212,3.89-11.539,9.911-11.539h56.351C71.249,44.522,75.419,48.05,76.243,52.875z M170.823,377.445L170.823,377.445
	c-13.551,0-24.638,11.123-24.638,24.717v21.663c0,13.595,11.087,24.717,24.637,24.717c13.551,0,24.639-11.124,24.639-24.72v-21.659
	C195.462,388.569,184.375,377.445,170.823,377.445z"/>
<path style="fill:#A57541;" d="M65.276,107.684h370.11L401.238,327.99H102.895L65.276,107.684z"/>
<path style="fill:#936537;" d="M401.238,327.99l16.867-108.813c-3.055-0.136-6.122-0.226-9.212-0.226
	c-78.699,0-147.075,44.157-181.734,109.039H401.238z"/>
<path style="fill:#CDE044;" d="M259.508,461.991c-1.467-14.964-1.329-30.32,0.6-45.868
	c14.021-112.964,116.659-193.136,229.258-179.074c7.359,0.92,14.581,2.229,21.642,3.887c1.473,14.964,1.332,30.32-0.6,45.869
	c-14.015,112.964-116.657,193.138-229.256,179.074C273.794,464.957,266.575,463.648,259.508,461.991L259.508,461.991z"/>
<path style="fill:#B1CD3E;" d="M281.153,465.878c-7.359-0.92-14.578-2.231-21.645-3.887l251.501-221.055
	c1.473,14.964,1.332,30.32-0.6,45.868C496.393,399.769,393.751,479.941,281.153,465.878z"/>
<path style="fill:#677C0F;" d="M397.663,340.601c3.633,4.186,3.196,10.534-0.976,14.179L271.225,464.376
	c-3.948-0.691-7.857-1.481-11.717-2.386c-0.431-4.394-0.706-8.826-0.855-13.284l124.876-109.085
	C387.702,335.977,394.03,336.416,397.663,340.601z"/>
</svg>